<?xml version="1.0" encoding="utf-8"?>
<!-- Generator: Adobe Illustrator 26.5.0, SVG Export Plug-In . SVG Version: 6.00 Build 0)  -->
<svg version="1.1" id="Layer_1" xmlns="http://www.w3.org/2000/svg" xmlns:xlink="http://www.w3.org/1999/xlink" x="0px" y="0px"
	 viewBox="0 0 595.28 841.89" style="enable-background:new 0 0 595.28 841.89;" xml:space="preserve">
<style type="text/css">
	.st0{fill:#39B47B;}
	.st1{fill:#FFFFFF;}
</style>
<g>
	<g>
		<g>
			<path class="st0" d="M395.81,337.56c0.17-10.53-4.03-20.65-11.6-27.98c-7.23-7.4-17.19-11.48-27.53-11.27l-117.91-0.16
				c-10.33-0.26-20.31,3.77-27.57,11.13c-7.59,7.31-11.82,17.46-11.67,28l-0.07,51.78c35.06,0.11,92.24,0.28,92.36,0.28
				c1.86,0,3.59,0.52,5.02,1.04s3.46,1.61,4.79,2.99c1.35,1.31,2.13,2.29,2.89,4.75c0.52,1.8,0.71,15.35,0.7,17.05l-0.34,79.62
				l51.99,0.27c10.55,0.17,20.69-4.03,28.03-11.6c7.38-7.24,11.44-17.2,11.21-27.53L395.81,337.56z"/>
		</g>
		<g>
			<path class="st0" d="M251.36,481.57c0.02-5.75,0.09-11.46,0.2-17.12c0.1-5.66-2.18-11.11-6.28-14.99
				c-4.04-4.22-9.31-6.53-15.5-6.53l-30.38-0.24l-0.02,12.51c-0.25,10.34,3.79,20.34,11.17,27.6c7.31,7.58,17.44,11.8,27.98,11.64
				l12.8,0.07L251.36,481.57z"/>
		</g>
	</g>
</g>
<path id="XMLID_00000064343574111679275860000007480600443343200139_" class="st1" d="M346.85,416.95l0.24-56.7
	c0.01-0.9-0.09-8.09-0.37-9.04c-0.4-1.31-0.82-1.82-1.53-2.51c-0.71-0.72-1.79-1.31-2.54-1.58c-0.76-0.27-1.67-0.55-2.66-0.55
	c-0.1,0-63.11-0.19-63.11-0.19c-1.83-0.02-3.59,0.72-4.87,2.02c-1.29,1.26-2,3-1.96,4.79l-0.12,21.52c0,0,1.5-0.01,2.26-0.01
	l34.91,0.27c3.28,0,6.07,1.22,8.22,3.46c2.18,2.06,3.39,4.95,3.33,7.95c-0.05,3-0.09,6.03-0.11,9.08l-0.12,25.94
	c0.01,0.79-0.01,2.1-0.01,2.1l21.56,0.17c1.8,0.05,3.56-0.51,4.83-1.78C346.15,420.6,346.89,418.81,346.85,416.95z"/>
<g>
	<g>
		<path class="st0" d="M262.89,543.06c-1.66,0.8-3.82,1.21-6.48,1.21c-3.48,0-6.22-1.02-8.2-3.07s-3-4.77-3-8.18
			c0-3.63,1.12-6.57,3.36-8.83c2.24-2.26,5.14-3.39,8.72-3.39c2.21,0,4.08,0.28,5.6,0.84v4.92c-1.52-0.91-3.25-1.36-5.18-1.36
			c-2.13,0-3.84,0.67-5.15,2.01c-1.31,1.34-1.96,3.15-1.96,5.44c0,2.2,0.62,3.94,1.86,5.25c1.23,1.31,2.9,1.96,4.98,1.96
			c2,0,3.82-0.48,5.48-1.46L262.89,543.06L262.89,543.06z"/>
		<path class="st0" d="M273.78,544.26c-2.7,0-4.82-0.76-6.37-2.26c-1.54-1.51-2.31-3.57-2.31-6.16c0-2.68,0.8-4.77,2.4-6.29
			c1.61-1.51,3.77-2.27,6.5-2.27c2.69,0,4.79,0.76,6.32,2.27c1.52,1.51,2.29,3.51,2.29,6.01c0,2.69-0.79,4.81-2.36,6.37
			C278.69,543.49,276.51,544.26,273.78,544.26z M273.9,531.1c-1.18,0-2.1,0.41-2.75,1.21c-0.66,0.82-0.98,1.96-0.98,3.44
			c0,3.11,1.26,4.67,3.76,4.67c2.39,0,3.59-1.6,3.59-4.79C277.53,532.61,276.31,531.1,273.9,531.1z"/>
		<path class="st0" d="M299.65,543.87h-13.6v-22.68h13.07v4.16h-7.97v5.04h7.42v4.14h-7.42v5.18h8.5V543.87z"/>
		<path class="st0" d="M323.8,543.87l-9.22-10.62c-0.26-0.31-0.42-0.52-0.49-0.65h-0.07v11.27h-2.11v-22.68h2.11v10.68h0.07
			c0.07-0.12,0.16-0.22,0.24-0.33c0.08-0.11,0.17-0.22,0.27-0.33l8.83-10.01h2.67l-9.84,10.95l10.48,11.74L323.8,543.87
			L323.8,543.87z"/>
		<path class="st0" d="M331.65,543.87h-2.11v-22.68h2.11V543.87z"/>
		<path class="st0" d="M343.74,523.11v20.75h-2.11v-20.75h-6.53v-1.93h15.19v1.93H343.74L343.74,523.11z"/>
	</g>
</g>
<path class="st1" d="M251.78,464.43c-0.11,5.65-0.17,11.33-0.2,17.07l-0.06,13.32h53.4l0.34-79.51c0.01-1.69-0.17-15.19-0.7-16.98
	c-0.75-2.45-1.53-3.43-2.87-4.73c-1.32-1.36-3.35-2.46-4.77-2.98c-1.41-0.52-3.15-1.03-5-1.03c-0.13,0-57.33-0.17-92.25-0.28v53.44
	l30.39,0.24c6.17,0,11.42,2.3,15.45,6.51C249.6,453.36,251.87,458.79,251.78,464.43z"/>
</svg>
