<?xml version="1.0" encoding="UTF-8"?>
<!-- Generated by Pixelmator Pro 3.1.1 -->
<svg width="20" height="20" viewBox="0 0 20 20" xmlns="http://www.w3.org/2000/svg" xmlns:xlink="http://www.w3.org/1999/xlink">
    <path id="Path" fill="#67bfff" stroke="none" d="M 16.145235 11.837305 C 16.145235 16.288712 12.523594 19.909922 8.072618 19.909922 C 3.62125 19.909922 0 16.288671 0 11.837305 C 0 7.386289 3.62125 3.764688 8.072618 3.764688 C 12.523633 3.764688 16.145235 7.386289 16.145235 11.837305 Z"/>
    <g id="Group">
        <path id="path1" fill="#ffffff" stroke="none" d="M 8.072618 5.405937 C 4.52625 5.405937 1.641328 8.290899 1.641328 11.837226 C 1.641328 15.383554 4.526289 18.268517 8.072618 18.268517 C 11.618594 18.268517 14.503906 15.383554 14.503906 11.837226 C 14.503906 8.290899 11.618594 5.405937 8.072618 5.405937 Z M 8.072618 17.11211 C 5.163906 17.11211 2.797812 14.745586 2.797812 11.837305 C 2.797812 8.929024 5.163906 6.5625 8.072618 6.5625 C 10.980938 6.5625 13.347031 8.929024 13.347031 11.837305 C 13.347031 14.745586 10.980938 17.11211 8.072618 17.11211 Z"/>
        <path id="path2" fill="#ffffff" stroke="none" d="M 8.072618 8.269922 C 6.105351 8.269922 4.505273 9.870039 4.505273 11.837265 C 4.505273 13.804491 6.105391 15.40461 8.072618 15.40461 C 10.039492 15.40461 11.64 13.804491 11.64 11.837265 C 11.64 9.870039 10.039492 8.269922 8.072618 8.269922 Z M 8.072618 14.248163 C 6.743438 14.248163 5.661757 13.166485 5.661757 11.837305 C 5.661757 10.508124 6.743438 9.426446 8.072618 9.426446 C 9.401797 9.426446 10.483478 10.508124 10.483478 11.837305 C 10.483478 13.166485 9.401797 14.248163 8.072618 14.248163 Z"/>
    </g>
    <path id="path3" fill="#0088ff" stroke="none" d="M 16.145235 11.837305 C 16.145235 16.288712 12.523594 19.909922 8.072618 19.909922 L 8.072618 3.764688 C 12.523633 3.764688 16.145235 7.386289 16.145235 11.837305 Z"/>
    <g id="g1">
        <path id="path4" fill="#d9d8db" stroke="none" d="M 11.64 11.837305 C 11.64 13.804531 10.039492 15.404649 8.072617 15.404649 L 8.072617 14.248125 C 9.401797 14.248125 10.483477 13.166446 10.483477 11.837266 C 10.483477 10.508085 9.401797 9.426406 8.072617 9.426406 L 8.072617 8.269882 C 10.039492 8.269923 11.64 9.87 11.64 11.837305 Z"/>
        <path id="path5" fill="#d9d8db" stroke="none" d="M 14.503905 11.837305 C 14.503905 15.383672 11.618554 18.268593 8.072617 18.268593 L 8.072617 17.11207 C 10.980937 17.11207 13.347031 14.745546 13.347031 11.837266 C 13.347031 8.928985 10.980937 6.562461 8.072617 6.562461 L 8.072617 5.405937 C 11.618594 5.405937 14.503905 8.290899 14.503905 11.837305 Z"/>
    </g>
    <path id="path6" fill="#fd7052" stroke="none" d="M 20 2.985586 L 12.248945 10.73668 L 8.073086 12.016211 L 8.0725 12.016758 L 9.353437 7.840625 L 14.98125 2.213398 L 17.10457 0.090078 Z"/>
    <path id="path7" fill="#ff4f18" stroke="none" d="M 20 2.985586 L 12.248945 10.73668 L 8.073086 12.016211 L 18.551836 1.537422 Z"/>
    <path id="path8" fill="#ffdba8" stroke="none" d="M 12.249218 10.736641 L 12.249024 10.736836 L 9.315117 11.635781 L 8.073086 12.016406 L 8.072422 12.016602 L 8.453632 10.774375 L 9.353437 7.840859 Z"/>
    <path id="path9" fill="#ffc473" stroke="none" d="M 12.249218 10.736641 L 12.249024 10.736836 L 9.315117 11.635781 L 8.073086 12.016406 L 10.801016 9.288438 Z"/>
    <path id="path10" fill="#57555c" stroke="none" d="M 9.315117 11.635781 L 8.073086 12.016406 L 8.072422 12.016602 L 8.453632 10.774375 Z"/>
    <path id="path11" fill="#67bfff" stroke="none" d="M 19.99964 2.985741 L 18.009483 4.975895 L 15.114075 2.080486 L 17.104229 0.09033 Z"/>
    <path id="path12" fill="#ffffff" stroke="none" d="M 18.742674 4.242711 L 17.876392 5.108992 L 14.980984 2.213583 L 15.847264 1.347301 Z"/>
    <path id="path13" fill="#0088ff" stroke="none" d="M 19.999933 2.985443 L 18.009779 4.975596 L 16.561632 3.527451 L 18.551786 1.537296 Z"/>
    <path id="path14" fill="#3c3a41" stroke="none" d="M 8.884376 11.205078 L 9.315117 11.635781 L 8.073086 12.016406 Z"/>
    <path id="path15" fill="#d9d8db" stroke="none" d="M 18.742865 4.242747 L 17.876583 5.109027 L 16.428438 3.660881 L 17.294718 2.7946 Z"/>
    <g id="g2"/>
    <g id="g3"/>
    <g id="g4"/>
    <g id="g5"/>
    <g id="g6"/>
    <g id="g7"/>
    <g id="g8"/>
    <g id="g9"/>
    <g id="g10"/>
    <g id="g11"/>
    <g id="g12"/>
    <g id="g13"/>
    <g id="g14"/>
    <g id="g15"/>
    <g id="g16"/>
</svg>
