<?xml version="1.0" encoding="UTF-8"?>
<!-- Generated by Pixelmator Pro 3.1.1 -->
<svg width="20" height="20" viewBox="0 0 20 20" xmlns="http://www.w3.org/2000/svg" xmlns:xlink="http://www.w3.org/1999/xlink">
    <g id="Group">
        <path id="Path" fill="#0f81e0" stroke="none" d="M 14.482774 4.310351 L 0.689648 4.310351 C 0.308633 4.310351 0 4.001719 0 3.620703 L 0 0.86207 C 0 0.481016 0.308633 0.172422 0.689648 0.172422 L 14.482735 0.172422 C 14.86375 0.172422 15.172382 0.481054 15.172382 0.86207 L 15.172382 3.620703 C 15.172422 4.001719 14.86379 4.310351 14.482774 4.310351"/>
        <path id="path1" fill="#ecba16" stroke="none" d="M 14.482774 9.482774 L 0.689648 9.482774 C 0.308633 9.482774 0 9.174141 0 8.793086 L 0 6.034453 C 0 5.653438 0.308633 5.344805 0.689648 5.344805 L 14.482735 5.344805 C 14.86375 5.344805 15.172382 5.653438 15.172382 6.034453 L 15.172382 8.793086 C 15.172422 9.174141 14.86379 9.482774 14.482774 9.482774"/>
        <path id="path2" fill="#ed7161" stroke="none" d="M 19.310352 14.655156 L 5.517227 14.655156 C 5.136211 14.655156 4.827578 14.346523 4.827578 13.965508 L 4.827578 11.206875 C 4.827578 10.825859 5.136211 10.517226 5.517227 10.517226 L 19.310312 10.517226 C 19.691328 10.517226 19.99996 10.825859 19.99996 11.206875 L 19.99996 13.965508 C 20 14.346563 19.691368 14.655156 19.310352 14.655156"/>
        <g id="g1">
            <path id="path3" fill="#42b05c" stroke="none" d="M 14.482774 19.827578 L 0.689648 19.827578 C 0.308633 19.827578 0 19.518984 0 19.13793 L 0 16.379297 C 0 15.998281 0.308633 15.689649 0.689648 15.689649 L 14.482735 15.689649 C 14.86375 15.689649 15.172382 15.998281 15.172382 16.379297 L 15.172382 19.13793 C 15.172422 19.518984 14.86379 19.827578 14.482774 19.827578"/>
            <path id="path4" fill="#42b05c" stroke="none" d="M 7.586211 12.931015 L 2.413789 12.931015 C 2.223086 12.931015 2.068945 12.776524 2.068945 12.586172 C 2.068945 12.395821 2.223086 12.241327 2.413789 12.241327 L 7.586211 12.241327 C 7.776914 12.241327 7.931055 12.395821 7.931055 12.586172 C 7.931015 12.776562 7.776914 12.931015 7.586211 12.931015"/>
            <path id="path5" fill="#42b05c" stroke="none" d="M 7.586211 12.931015 C 7.49793 12.931015 7.409648 12.897226 7.342422 12.83 L 6.30793 11.795507 C 6.173086 11.660664 6.173086 11.442734 6.30793 11.30793 C 6.442773 11.173125 6.660703 11.173086 6.795507 11.30793 L 7.83 12.342422 C 7.964843 12.477265 7.964843 12.695196 7.83 12.83 C 7.762774 12.897226 7.674492 12.931015 7.586211 12.931015"/>
            <path id="path6" fill="#42b05c" stroke="none" d="M 6.551719 13.965508 C 6.463438 13.965508 6.375156 13.931719 6.30793 13.864492 C 6.173086 13.729649 6.173086 13.511719 6.30793 13.376915 L 7.342422 12.342422 C 7.477265 12.207579 7.695195 12.207579 7.83 12.342422 C 7.964843 12.477266 7.964843 12.695196 7.83 12.83 L 6.795507 13.864492 C 6.728281 13.931719 6.64 13.965508 6.551719 13.965508"/>
        </g>
        <g id="g2">
            <path id="path7" fill="#ffffff" stroke="none" d="M 17.931015 12.931015 L 9.655156 12.931015 C 9.464453 12.931015 9.310312 12.776524 9.310312 12.586172 C 9.310312 12.395821 9.464453 12.241327 9.655156 12.241327 L 17.931015 12.241327 C 18.121717 12.241327 18.27586 12.395821 18.27586 12.586172 C 18.27586 12.776562 18.121717 12.931015 17.931015 12.931015"/>
            <path id="path8" fill="#ffffff" stroke="none" d="M 13.103437 7.758633 L 4.827578 7.758633 C 4.636875 7.758633 4.482735 7.604141 4.482735 7.413789 C 4.482735 7.223437 4.636875 7.068945 4.827578 7.068945 L 13.103437 7.068945 C 13.29414 7.068945 13.448281 7.223437 13.448281 7.413789 C 13.448281 7.604141 13.29414 7.758633 13.103437 7.758633"/>
            <path id="path9" fill="#ffffff" stroke="none" d="M 3.103437 7.413789 C 3.103437 7.032774 2.794805 6.724141 2.413789 6.724141 C 2.032773 6.724141 1.724141 7.032774 1.724141 7.413789 C 1.724141 7.794805 2.032773 8.103437 2.413789 8.103437 C 2.794805 8.103437 3.103437 7.794844 3.103437 7.413789"/>
            <path id="path10" fill="#ffffff" stroke="none" d="M 13.103437 2.58621 L 4.827578 2.58621 C 4.636875 2.58621 4.482735 2.431719 4.482735 2.241367 C 4.482735 2.051016 4.636875 1.896523 4.827578 1.896523 L 13.103437 1.896523 C 13.29414 1.896523 13.448281 2.051016 13.448281 2.241367 C 13.448281 2.431719 13.29414 2.58621 13.103437 2.58621"/>
            <path id="path11" fill="#ffffff" stroke="none" d="M 3.103437 2.241367 C 3.103437 1.860352 2.794805 1.55172 2.413789 1.55172 C 2.032773 1.55172 1.724141 1.860352 1.724141 2.241367 C 1.724141 2.622383 2.032773 2.931015 2.413789 2.931015 C 2.794805 2.931015 3.103437 2.622421 3.103437 2.241367"/>
            <path id="path12" fill="#ffffff" stroke="none" d="M 13.103437 18.103437 L 4.827578 18.103437 C 4.636875 18.103437 4.482735 17.948946 4.482735 17.758595 C 4.482735 17.568243 4.636875 17.41375 4.827578 17.41375 L 13.103437 17.41375 C 13.29414 17.41375 13.448281 17.568243 13.448281 17.758595 C 13.448281 17.948946 13.29414 18.103437 13.103437 18.103437"/>
            <path id="path13" fill="#ffffff" stroke="none" d="M 3.103437 17.758633 C 3.103437 17.377617 2.794805 17.068985 2.413789 17.068985 C 2.032773 17.068985 1.724141 17.377617 1.724141 17.758633 C 1.724141 18.139648 2.032773 18.44828 2.413789 18.44828 C 2.794805 18.44828 3.103437 18.139648 3.103437 17.758633"/>
        </g>
    </g>
    <g id="g3"/>
    <g id="g4"/>
    <g id="g5"/>
    <g id="g6"/>
    <g id="g7"/>
    <g id="g8"/>
    <g id="g9"/>
    <g id="g10"/>
    <g id="g11"/>
    <g id="g12"/>
    <g id="g13"/>
    <g id="g14"/>
    <g id="g15"/>
    <g id="g16"/>
    <g id="g17"/>
</svg>
