<?xml version="1.0" encoding="UTF-8"?>
<!-- Generated by Pixelmator Pro 3.1.1 -->
<svg width="20" height="20" viewBox="0 0 20 20" xmlns="http://www.w3.org/2000/svg" xmlns:xlink="http://www.w3.org/1999/xlink">
    <path id="Path" fill="#48ace1" stroke="none" d="M 1.179518 18.857832 C 0.409036 18.110844 -0.01747 17.078312 -0 16.006023 L 0.069277 3.965662 C 0.054217 2.894577 0.483133 1.864458 1.255422 1.121084 C 1.994578 0.371084 3.011446 -0.039156 4.063855 -0.013252 L 16.062048 0.008434 C 17.134939 -0.006025 18.166265 0.424698 18.910845 1.196987 C 19.659639 1.935543 20.069277 2.950603 20.04277 4.001807 L 20.021687 15.994578 C 20.04277 17.046385 19.627108 18.060242 18.873493 18.795179 C 18.128313 19.56506 17.097591 19.991566 16.026506 19.973494 L 3.981325 19.998795 C 2.929518 20.021687 1.915663 19.609035 1.179518 18.857832 Z"/>
    <path id="path1" fill="#ffffff" stroke="none" d="M 8.299397 3.157831 L 2.765663 7.847589 C 2.678313 7.921687 2.578313 7.999999 2.466867 8.080723 C 2.358434 8.16024 2.256024 8.24759 2.159638 8.341566 C 2.068675 8.43012 1.98735 8.528313 1.91747 8.634337 C 1.848795 8.742168 1.808434 8.86506 1.799398 8.992168 C 1.787349 9.121083 1.807229 9.251204 1.856627 9.370481 C 1.906626 9.489758 1.970482 9.601808 2.046988 9.706024 C 2.126506 9.814458 2.213253 9.917469 2.307229 10.013855 C 2.404217 10.112048 2.489759 10.205421 2.563855 10.293975 L 7.254819 15.825302 C 7.404819 16.005421 7.622891 16.115664 7.856627 16.130121 C 8.086144 16.151205 8.313855 16.075905 8.486144 15.922892 L 10.606627 14.131326 C 10.531325 14.06988 10.462049 14.001807 10.399398 13.927711 L 7.522892 10.512048 C 7.262048 10.213253 7.136747 9.81988 7.175904 9.425301 C 7.195783 9.042168 7.375904 8.684337 7.672289 8.440361 C 7.969277 8.196385 8.266265 7.948192 8.563855 7.695783 L 11.095181 5.550602 C 11.171686 5.484337 11.253614 5.425301 11.340963 5.374699 L 9.53494 3.251808 C 9.390362 3.072891 9.177711 2.961447 8.948193 2.944578 C 8.711446 2.921686 8.475904 2.998795 8.298795 3.156626 Z"/>
    <path id="path2" fill="#48ace1" stroke="none" d="M 10.306025 2.522289 C 10.854217 2.493374 11.390362 2.692772 11.786144 3.072891 L 16.396988 7.298192 C 16.81506 7.669879 17.060843 8.198193 17.075302 8.757229 C 17.103615 9.304819 16.904217 9.839157 16.524096 10.234337 L 12.296988 14.842772 C 11.934939 15.25482 11.418674 15.499397 10.86988 15.517469 C 10.312651 15.551807 9.765663 15.353615 9.359638 14.970482 L 4.713855 10.746386 C 4.301205 10.385542 4.056024 9.870481 4.036747 9.322289 C 4.003012 8.763855 4.201807 8.216867 4.586144 7.810241 L 8.848795 3.199999 C 9.21988 2.78253 9.74759 2.536747 10.306025 2.521687"/>
    <path id="path3" fill="#ffffff" stroke="none" d="M 11.749397 2.51265 C 12.29759 2.483736 12.833735 2.683132 13.229518 3.063253 L 17.840361 7.288554 C 18.258434 7.660241 18.504217 8.188554 18.518675 8.74759 C 18.546988 9.29518 18.347591 9.829518 17.96747 10.224698 L 13.740361 14.833133 C 13.378313 15.24518 12.862048 15.489759 12.313252 15.507832 C 11.756023 15.542168 11.209037 15.343976 10.803012 14.960843 L 6.157229 10.736747 C 5.744578 10.375903 5.499398 9.860843 5.480121 9.312651 C 5.446386 8.754216 5.645181 8.207229 6.029518 7.800602 L 10.292771 3.190964 C 10.663856 2.773495 11.191566 2.52771 11.75 2.51265"/>
    <path id="path4" fill="#48ace1" stroke="none" d="M 12.68494 13.960844 L 16.660843 9.934337 C 16.723494 9.870481 16.795782 9.803012 16.87711 9.73253 C 16.956024 9.663252 17.029518 9.587951 17.097591 9.508433 C 17.162651 9.433734 17.218674 9.351205 17.26506 9.263855 C 17.310843 9.175301 17.334337 9.077108 17.331926 8.977711 C 17.331926 8.876506 17.308434 8.777108 17.261446 8.687952 C 17.214458 8.598795 17.157228 8.515663 17.090363 8.440361 C 17.021084 8.361445 16.946386 8.287349 16.866867 8.219276 C 16.784338 8.149398 16.711447 8.083132 16.648191 8.019277 L 12.621084 4.04518 C 12.492168 3.915663 12.31506 3.845181 12.13253 3.85 C 11.953012 3.85 11.781325 3.923494 11.657831 4.054216 L 10.133735 5.592771 C 10.196385 5.634939 10.254819 5.683132 10.308434 5.736747 L 12.779518 8.192168 C 13.002409 8.406626 13.127109 8.703614 13.124097 9.01265 C 13.134939 9.312048 13.019879 9.601808 12.806626 9.812048 C 12.592771 10.022289 12.378916 10.235541 12.165663 10.451807 L 10.346988 12.293373 C 10.292169 12.35 10.232531 12.401205 10.168072 12.446988 L 11.718073 13.971687 C 11.842771 14.100603 12.015663 14.172289 12.195181 14.16988 C 12.380723 14.171687 12.558434 14.095181 12.68494 13.960241 Z"/>
</svg>
