<?xml version="1.0" encoding="UTF-8"?>
<!-- Generated by Pixelmator Pro 3.1.1 -->
<svg width="20" height="20" viewBox="0 0 20 20" xmlns="http://www.w3.org/2000/svg" xmlns:xlink="http://www.w3.org/1999/xlink">
    <g id="Group">
        <path id="Path" fill="#39b47b" stroke="none" d="M 20.015106 3.973494 C 20.085197 1.842169 18.175831 -0.087952 16.03142 -0.009638 C 16.03142 -0.009638 4.029003 -0.025904 4.029003 -0.025904 C 1.880967 -0.116264 -0.032024 1.813253 0.033837 3.945784 C 0.033837 3.945784 0.026586 9.201205 0.026586 9.201205 C 3.595166 9.212049 9.416314 9.229519 9.429607 9.229519 C 9.999396 9.269879 10.532326 9.524699 10.72145 10.120481 C 10.873716 11.207831 10.732931 18.671686 10.758308 19.931326 C 12.824774 19.750603 17.397583 20.671686 18.905136 18.78253 C 19.656797 18.048191 20.069487 17.036144 20.045921 15.987349 L 20.015106 3.973494 Z"/>
        <path id="path1" fill="#39b47b" stroke="none" d="M 5.309366 18.590361 C 5.256193 17.481928 5.621148 16.166868 4.689426 15.33012 C 3.888217 14.274698 1.150453 14.763855 0.018731 14.643373 C -0.048943 16.067471 0.007251 17.691566 1.153474 18.713856 C 2.184894 19.888554 3.848943 19.963856 5.303323 19.902409 L 5.308762 18.590361 Z"/>
    </g>
    <path id="path2" fill="#ffffff" stroke="none" d="M 15.030211 12.031929 C 15.020544 11.394579 15.096677 5.825301 15.016918 5.359638 C 14.976435 5.227109 14.934139 5.174699 14.861027 5.104217 C 14.702115 4.96024 14.542598 4.900602 14.331722 4.887952 C 14.090031 4.96747 7.351662 4.657228 7.41148 5.074096 C 7.029003 5.323494 7.269486 7.365663 7.198792 7.743976 C 12.888822 7.816265 12.145619 6.993373 12.135952 12.695783 L 14.331118 12.713856 C 14.712387 12.740963 15.045318 12.409037 15.030211 12.031929 Z"/>
    <path id="path3" fill="#ffffff" stroke="none" d="M 5.351057 16.850603 C 5.331722 17.780724 5.329305 18.989758 5.325075 19.93494 L 10.76133 19.93494 C 10.735951 18.633133 10.877341 11.259037 10.724472 10.140965 C 10.535952 9.546988 10.004834 9.293976 9.436857 9.253013 C 9.423565 9.253013 3.600604 9.235542 0.045921 9.224699 L 0.045921 14.648192 L 3.139577 14.672289 C 4.334139 14.653614 5.374622 15.671686 5.350453 16.85 Z"/>
</svg>
