<?xml version="1.0" encoding="UTF-8"?>
<!-- Generated by Pixelmator Pro 3.1.1 -->
<svg width="20" height="20" viewBox="0 0 20 20" xmlns="http://www.w3.org/2000/svg" xmlns:xlink="http://www.w3.org/1999/xlink">
    <path id="Path" fill="#f06696" stroke="none" d="M 1.157229 18.788521 C 0.394578 18.036858 -0.024096 17.002417 0.001205 15.929909 L 0.146988 3.894863 C 0.138554 2.823566 0.572892 1.796978 1.346988 1.059214 C 2.087952 0.314199 3.103615 -0.089426 4.15241 -0.056797 L 16.104216 0.041693 C 17.173492 0.034441 18.19759 0.471298 18.93494 1.248339 C 19.675903 1.990938 20.077711 3.008459 20.043976 4.059214 L 19.945784 16.047129 C 19.959639 17.099092 19.539158 18.109365 18.784338 18.839275 C 18.03735 19.603626 17.00783 20.023563 15.940964 19.998793 L 3.941566 19.946827 C 2.893976 19.96314 1.886145 19.543808 1.157831 18.787916 Z"/>
    <path id="path1" fill="#ffffff" stroke="none" d="M 17.724699 9.460423 L 17.724699 3.705137 C 17.724699 3.613897 17.727711 3.513596 17.736145 3.404835 C 17.743374 3.298489 17.743374 3.191542 17.736145 3.085196 C 17.729517 2.984894 17.711447 2.885197 17.683132 2.788519 C 17.653614 2.691843 17.6 2.604231 17.527109 2.533535 C 17.455421 2.459818 17.366867 2.405437 17.269278 2.374018 C 17.172289 2.343203 17.071688 2.323866 16.969881 2.317221 C 16.863855 2.309366 16.757229 2.309366 16.651205 2.317221 C 16.54217 2.32568 16.442169 2.329304 16.351204 2.328701 L 10.613855 2.328701 C 10.428313 2.326889 10.250603 2.402418 10.122289 2.536556 C 9.992168 2.664654 9.921084 2.841087 9.925301 3.023565 L 9.92229 5.226586 C 9.997591 5.212689 10.074096 5.205439 10.150602 5.206042 L 13.683132 5.218127 C 13.996988 5.213898 14.298193 5.339577 14.516265 5.566163 C 14.73735 5.774623 14.860844 6.06707 14.857229 6.371601 C 14.853012 6.676737 14.850603 6.983685 14.850603 7.293051 L 14.850603 9.92568 C 14.851205 10.006042 14.845181 10.0858 14.830723 10.164954 L 17.035543 10.161933 C 17.21747 10.166163 17.393373 10.094864 17.521084 9.964351 C 17.656023 9.833233 17.730122 9.650755 17.7253 9.462236 Z"/>
    <path id="path2" fill="#ffffff" stroke="none" d="M 3.022289 6.52568 L 2.986747 14.943806 C 2.986747 15.076737 3.000602 16.143806 3.041566 16.285196 C 3.100602 16.47855 3.162048 16.555891 3.268072 16.659214 C 3.372289 16.767372 3.531928 16.853775 3.643976 16.89426 C 3.756024 16.934742 3.891566 16.975832 4.037952 16.975832 C 4.053012 16.975832 13.38012 17.00423 13.38012 17.00423 C 13.651205 17.007856 13.912048 16.899094 14.100603 16.703323 C 14.291567 16.516617 14.396385 16.259214 14.391566 15.992146 L 14.410241 12.797583 C 14.410241 12.797583 14.187952 12.799999 14.075904 12.799397 L 8.909036 12.759517 C 8.422892 12.759517 8.009639 12.577644 7.692169 12.245317 C 7.369879 11.938369 7.190964 11.50997 7.198795 11.064652 C 7.207229 10.618731 7.212048 10.169185 7.214458 9.716617 L 7.231325 5.865861 C 7.230723 5.74864 7.231325 5.554684 7.231325 5.554684 L 4.039157 5.528097 C 3.772892 5.520845 3.512048 5.603021 3.324699 5.792145 C 3.126506 5.983685 3.01747 6.248942 3.022892 6.525076 Z"/>
</svg>
