<?xml version="1.0" encoding="UTF-8"?>
<!-- Generated by Pixelmator Pro 3.1.1 -->
<svg width="20" height="20" viewBox="0 0 20 20" xmlns="http://www.w3.org/2000/svg" xmlns:xlink="http://www.w3.org/1999/xlink">
    <g id="Group">
        <g id="g1">
            <path id="Path" fill="#00a69a" stroke="none" d="M 20 10 C 20 15.522848 15.522848 20 10 20 C 4.477152 20 0 15.522848 0 10 C -0 4.477152 4.477152 0 10 0 C 15.522848 0 20 4.477152 20 10 Z"/>
        </g>
        <g id="g2">
            <g id="g3">
                <path id="path1" fill="#c3996d" stroke="none" d="M 10.50064 17.21648 L 9.49936 17.21648 L 9.49936 2.718399 L 10 2 L 10.50064 2.718399 Z"/>
            </g>
            <g id="g4">
                <path id="path2" fill="#c3996d" stroke="none" d="M 6.93056 16.99872 L 13.06944 16.99872 L 13.06944 18 L 6.93056 18 Z"/>
            </g>
            <g id="g5">
                <path id="path3" fill="#ffffff" stroke="none" d="M 9.49936 6.46272 L 5.38944 6.46272 L 3.82208 4.89536 L 5.38944 3.328001 L 9.49936 3.328001 Z"/>
            </g>
            <g id="g6">
                <path id="path4" fill="#fa6a5d" stroke="none" d="M 10.50064 7.3768 L 14.61056 7.3768 L 16.177919 8.94416 L 14.61056 10.511519 L 10.50064 10.511519 Z"/>
            </g>
        </g>
    </g>
    <g id="g7"/>
    <g id="g8"/>
    <g id="g9"/>
    <g id="g10"/>
    <g id="g11"/>
    <g id="g12"/>
    <g id="g13"/>
    <g id="g14"/>
    <g id="g15"/>
    <g id="g16"/>
    <g id="g17"/>
    <g id="g18"/>
    <g id="g19"/>
    <g id="g20"/>
    <g id="g21"/>
</svg>
