<?xml version="1.0" encoding="UTF-8"?>
<!-- Generated by Pixelmator Pro 3.1.1 -->
<svg width="20" height="20" viewBox="0 0 20 20" xmlns="http://www.w3.org/2000/svg" xmlns:xlink="http://www.w3.org/1999/xlink">
    <g id="Group">
        <path id="Path" fill="#88c5cc" stroke="none" d="M 20 10 C 20 15.522847 15.522847 20 10 20 C 4.477152 20 0 15.522847 0 10 C 0 4.477153 4.477152 0 10 0 C 15.522847 0 20 4.477153 20 10 Z"/>
        <path id="path1" fill="#80b9bf" stroke="none" d="M 19.992031 10.315782 L 17.8125 5.024062 C 17.8125 4.805624 17.633595 4.6875 17.415312 4.6875 L 2.584687 4.6875 C 2.36625 4.6875 2.1875 4.831875 2.1875 5.050312 L 2.1875 5.130312 L 2.1875 5.210313 L 2.1875 12.8125 L 2.1875 12.8925 L 2.1875 12.972813 L 2.1875 14.716875 L 2.1875 14.84375 L 3.257031 17.383907 C 5.035156 19.008438 7.401562 20 10 20 C 15.416875 20 19.824844 15.692187 19.992031 10.315782 Z"/>
        <g id="g1">
            <g id="g2">
                <path id="path2" fill="#263740" stroke="none" d="M 2.1875 12.8125 L 2.1875 5.050312 C 2.1875 4.831875 2.36625 4.6875 2.584687 4.6875 L 17.415312 4.6875 C 17.633595 4.6875 17.8125 4.831875 17.8125 5.050312 L 17.8125 12.8125 L 2.1875 12.8125 Z"/>
            </g>
            <g id="g3">
                <path id="path3" fill="#e6e6e6" stroke="none" d="M 2.1875 12.8125 L 2.1875 14.716875 C 2.1875 14.935156 2.36625 15.15625 2.584687 15.15625 L 17.415312 15.15625 C 17.633595 15.15625 17.8125 14.935156 17.8125 14.716719 L 17.8125 12.8125 L 2.1875 12.8125 Z"/>
            </g>
            <g id="g4">
                <path id="path4" fill="#f2cf61" stroke="none" d="M 2.8125 5.46875 L 17.1875 5.46875 L 17.1875 12.1875 L 2.8125 12.1875 Z"/>
            </g>
            <g id="g5">
                <path id="path5" fill="#cc584c" stroke="none" d="M 10.15625 5.15625 C 10.15625 5.242544 10.086294 5.3125 10 5.3125 C 9.913706 5.3125 9.84375 5.242544 9.84375 5.15625 C 9.84375 5.069956 9.913706 5 10 5 C 10.086294 5 10.15625 5.069956 10.15625 5.15625 Z"/>
            </g>
            <g id="g6">
                <path id="path6" fill="#f5f5f5" stroke="none" d="M 12.515937 17.650938 C 11.721562 17.386095 11.324219 15.625 11.324219 15.15625 L 10 15.15625 L 8.675781 15.15625 C 8.675781 15.625 8.278594 17.386095 7.484062 17.650938 C 7.351563 17.650938 7.219219 17.755468 7.219219 17.88797 C 7.219219 18.020626 7.351718 18.125156 7.484062 18.125156 C 7.74875 18.125 10 18.125 10 18.125 C 10 18.125 12.251094 18.125 12.515937 18.125 C 12.648593 18.125 12.780781 18.020313 12.780781 17.887814 C 12.780781 17.755314 12.648281 17.650938 12.515937 17.650938 Z"/>
            </g>
            <g id="g7">
                <path id="path7" fill="#e6e6e6" stroke="none" d="M 7.484062 17.65625 C 7.351563 17.65625 7.219219 17.758125 7.219219 17.890625 C 7.219219 18.023125 7.351718 18.125 7.484062 18.125 C 7.74875 18.125 10 18.125 10 18.125 C 10 18.125 12.251094 18.125 12.515937 18.125 C 12.648593 18.125 12.780781 18.023125 12.780781 17.890625 C 12.780781 17.758125 12.648281 17.65625 12.515937 17.65625 L 7.484062 17.65625 Z"/>
            </g>
            <g id="g8">
                <path id="path8" fill="#f5f5f5" stroke="none" d="M 10.3125 13.90625 C 10.3125 14.078838 10.172588 14.21875 10 14.21875 C 9.827412 14.21875 9.6875 14.078838 9.6875 13.90625 C 9.6875 13.733662 9.827412 13.59375 10 13.59375 C 10.172588 13.59375 10.3125 13.733662 10.3125 13.90625 Z"/>
            </g>
            <path id="path9" fill="#cc584c" stroke="none" d="M 8.59375 7.358906 C 8.59375 6.873905 8.95625 6.684999 9.369219 6.939375 L 11.700469 8.366094 C 12.11375 8.620156 12.119843 9.035937 11.706718 9.290156 L 9.36625 10.717031 C 8.953125 10.971093 8.59375 10.782187 8.59375 10.2975 L 8.59375 7.358906 Z"/>
        </g>
        <g id="g9">
            <path id="path10" fill="#263740" stroke="none" d="M 2.1875 12.8125 L 2.1875 5.050312 C 2.1875 4.831875 2.36625 4.6875 2.584687 4.6875 L 17.415312 4.6875 C 17.633595 4.6875 17.8125 4.831875 17.8125 5.050312 L 17.8125 12.8125 L 2.1875 12.8125 Z"/>
        </g>
        <g id="g10">
            <path id="path11" fill="#e6e6e6" stroke="none" d="M 2.1875 12.8125 L 2.1875 14.716875 C 2.1875 14.935156 2.36625 15.15625 2.584687 15.15625 L 17.415312 15.15625 C 17.633595 15.15625 17.8125 14.935156 17.8125 14.716719 L 17.8125 12.8125 L 2.1875 12.8125 Z"/>
        </g>
        <g id="g11">
            <g id="g12">
                <path id="path12" fill="#e16b5a" stroke="none" d="M 2.8125 5.46875 L 17.1875 5.46875 L 17.1875 12.1875 L 2.8125 12.1875 Z"/>
            </g>
        </g>
        <g id="g13">
            <path id="path13" fill="#cc584c" stroke="none" d="M 10.15625 5.15625 C 10.15625 5.242544 10.086294 5.3125 10 5.3125 C 9.913706 5.3125 9.84375 5.242544 9.84375 5.15625 C 9.84375 5.069956 9.913706 5 10 5 C 10.086294 5 10.15625 5.069956 10.15625 5.15625 Z"/>
        </g>
        <g id="g14">
            <path id="path14" fill="#f5f5f5" stroke="none" d="M 12.515937 17.650938 C 11.721562 17.386095 11.324219 15.625 11.324219 15.15625 L 10 15.15625 L 8.675781 15.15625 C 8.675781 15.625 8.278594 17.386095 7.484062 17.650938 C 7.351563 17.650938 7.219219 17.755468 7.219219 17.88797 C 7.219219 18.020626 7.351718 18.125156 7.484062 18.125156 C 7.74875 18.125 10 18.125 10 18.125 C 10 18.125 12.251094 18.125 12.515937 18.125 C 12.648593 18.125 12.780781 18.020313 12.780781 17.887814 C 12.780781 17.755314 12.648281 17.650938 12.515937 17.650938 Z"/>
        </g>
        <g id="g15">
            <path id="path15" fill="#e6e6e6" stroke="none" d="M 7.484062 17.65625 C 7.351563 17.65625 7.219219 17.758125 7.219219 17.890625 C 7.219219 18.023125 7.351718 18.125 7.484062 18.125 C 7.74875 18.125 10 18.125 10 18.125 C 10 18.125 12.251094 18.125 12.515937 18.125 C 12.648593 18.125 12.780781 18.023125 12.780781 17.890625 C 12.780781 17.758125 12.648281 17.65625 12.515937 17.65625 L 7.484062 17.65625 Z"/>
        </g>
        <g id="g16">
            <path id="path16" fill="#f5f5f5" stroke="none" d="M 10.3125 13.90625 C 10.3125 14.078838 10.172588 14.21875 10 14.21875 C 9.827412 14.21875 9.6875 14.078838 9.6875 13.90625 C 9.6875 13.733662 9.827412 13.59375 10 13.59375 C 10.172588 13.59375 10.3125 13.733662 10.3125 13.90625 Z"/>
        </g>
        <path id="path17" fill="#f5f5f5" stroke="none" d="M 8.75 6.998906 C 8.75 6.916406 8.823281 6.885781 8.892187 6.931094 L 11.551094 8.667656 C 11.620157 8.712969 11.624218 8.786875 11.555157 8.832188 L 8.89 10.568906 C 8.821095 10.614062 8.75 10.583438 8.75 10.501094 L 8.75 6.998906 Z"/>
    </g>
</svg>
