<?xml version="1.0" encoding="UTF-8"?>
<!-- Generated by Pixelmator Pro 3.1.1 -->
<svg width="20" height="20" viewBox="0 0 20 20" xmlns="http://www.w3.org/2000/svg" xmlns:xlink="http://www.w3.org/1999/xlink">
    <g id="Group">
        <path id="Path" fill="#8dc3e9" stroke="none" d="M 10.019413 6.200353 C 8.591898 6.200353 7.430567 5.038982 7.430567 3.611507 C 7.430567 2.184031 8.591937 1.022661 10.019413 1.022661 C 11.446888 1.022661 12.608258 2.184031 12.608258 3.611507 C 12.608258 5.038982 11.446927 6.200353 10.019413 6.200353 Z"/>
        <path id="path1" fill="#8dc3e9" stroke="none" d="M 14.194403 12.435851 L 5.844462 12.435851 C 5.499334 12.435851 5.21953 12.156048 5.21953 11.810921 C 5.21953 9.164227 7.372759 7.011037 10.019413 7.011037 C 12.666067 7.011037 14.819295 9.164227 14.819295 11.810921 C 14.819335 12.156086 14.53953 12.435851 14.194403 12.435851 Z"/>
    </g>
    <g id="g1">
        <path id="path2" fill="#ffe49c" stroke="none" d="M 11.231859 18.865362 L 10.019491 18.228024 L 8.807123 18.865362 C 8.349589 19.105871 7.812955 18.71632 7.900391 18.206575 L 8.131937 16.856594 L 7.151155 15.900548 C 6.781018 15.539726 6.985675 14.909002 7.497495 14.834599 L 8.852955 14.637612 L 9.459139 13.409393 C 9.687906 12.945871 10.351037 12.945559 10.579921 13.409393 L 11.186106 14.637612 L 12.541566 14.834599 C 13.053073 14.908924 13.258278 15.539491 12.887906 15.900548 L 11.907123 16.856594 L 12.138669 18.206575 C 12.226693 18.720196 11.685676 19.103992 11.231859 18.865362 Z"/>
        <path id="path3" fill="#ffe49c" stroke="none" d="M 4.269511 18.865362 L 3.057143 18.227983 L 1.844775 18.865362 C 1.387241 19.105871 0.850607 18.71632 0.938043 18.206575 L 1.169589 16.856594 L 0.188885 15.900587 C -0.181252 15.539804 0.023405 14.90904 0.535225 14.834677 L 1.890685 14.637691 L 2.49683 13.409472 C 2.725597 12.94595 3.388728 12.945675 3.617613 13.409472 L 4.223796 14.637691 L 5.579257 14.834677 C 6.090764 14.909002 6.295929 15.53957 5.925597 15.900627 L 4.944736 16.856674 L 5.176282 18.206654 C 5.263797 18.716751 4.726732 19.105753 4.269511 18.865362 Z"/>
    </g>
    <path id="path4" fill="#ffd155" stroke="none" d="M 18.194168 18.865362 L 16.9818 18.227983 L 15.769432 18.865362 C 15.311898 19.105871 14.775264 18.71632 14.8627 18.206575 L 15.094246 16.856594 L 14.113503 15.900548 C 13.743366 15.539765 13.948024 14.909002 14.459844 14.834638 L 15.815303 14.637651 L 16.421448 13.409432 C 16.650215 12.94591 17.313345 12.945637 17.542231 13.409432 L 18.148415 14.637651 L 19.503876 14.834638 C 20.015383 14.908963 20.220549 15.53953 19.850216 15.900587 L 18.869432 16.856634 L 19.100979 18.206615 C 19.188416 18.716751 18.65135 19.105753 18.194168 18.865362 Z"/>
    <g id="g2">
        <path id="path5" fill="#48aee2" stroke="none" d="M 12.608297 3.611507 C 12.608297 2.184031 11.447006 1.022701 10.019569 1.022661 L 10.019569 6.20043 C 11.446967 6.200274 12.608297 5.038943 12.608297 3.611507 Z"/>
        <path id="path6" fill="#48aee2" stroke="none" d="M 10.019569 7.011037 L 10.019569 12.435851 L 14.194403 12.435851 C 14.53953 12.435851 14.819335 12.156048 14.819335 11.810921 C 14.819335 9.164344 12.666105 7.011116 10.019569 7.011037 Z"/>
    </g>
    <path id="path7" fill="#ffd155" stroke="none" d="M 12.541527 14.834677 L 11.186066 14.637691 L 10.579883 13.409472 C 10.474599 13.196165 10.257339 13.061096 10.019491 13.061096 L 10.019491 18.227983 L 11.231859 18.865322 C 11.68685 19.10454 12.226576 18.719452 12.138591 18.206535 L 11.907045 16.856556 L 12.887828 15.900509 C 13.258004 15.539765 13.053347 14.90904 12.541527 14.834677 Z"/>
    <g id="g3"/>
    <g id="g4"/>
    <g id="g5"/>
    <g id="g6"/>
    <g id="g7"/>
    <g id="g8"/>
    <g id="g9"/>
    <g id="g10"/>
    <g id="g11"/>
    <g id="g12"/>
    <g id="g13"/>
    <g id="g14"/>
    <g id="g15"/>
    <g id="g16"/>
    <g id="g17"/>
</svg>
