<svg width="97" height="96" xmlns="http://www.w3.org/2000/svg" xmlns:xlink="http://www.w3.org/1999/xlink" xml:space="preserve" overflow="hidden"><g transform="translate(-44 -204)"><g><g><g><g><path d="M113 289 73 289C69.134 289 66 285.866 66 282L66 222C66 218.134 69.134 215 73 215L113 215C116.866 215 120 218.134 120 222L120 282C120 285.866 116.866 289 113 289ZM73 221C72.4477 221 72 221.448 72 222L72 282C72 282.552 72.4477 283 73 283L113 283C113.552 283 114 282.552 114 282L114 222C114 221.448 113.552 221 113 221Z" fill="#D9D9D9" fill-rule="nonzero" fill-opacity="1"/><path d="M99 248C98.3934 248.003 97.7904 248.094 97.21 248.27 99.571 245.945 99.6002 242.146 97.275 239.785 94.9499 237.424 91.151 237.395 88.79 239.72 86.429 242.045 86.3998 245.844 88.725 248.205 88.7465 248.227 88.7682 248.249 88.79 248.27 88.2096 248.094 87.6066 248.003 87 248 83.6863 247.996 80.9965 250.679 80.9923 253.992 80.988 257.306 83.6708 259.996 86.9845 260 88.6664 260.002 90.2719 259.298 91.41 258.06 91.19 261.6 90.54 264.84 89 266L97 266C95.46 264.84 94.81 261.6 94.59 258.06 96.8323 260.5 100.628 260.66 103.068 258.418 105.508 256.175 105.668 252.38 103.425 249.94 102.287 248.702 100.682 247.998 99 248Z" fill="#D9D9D9" fill-rule="nonzero" fill-opacity="1"/><path d="M81 227C80.9034 226.995 80.8066 226.995 80.71 227 81.2829 226.056 80.9817 224.826 80.0373 224.253 79.0928 223.68 77.8629 223.981 77.29 224.926 76.9033 225.563 76.9033 226.363 77.29 227 77.1934 226.995 77.0966 226.995 77 227 75.8954 227 75 227.895 75 229 75 230.105 75.8954 231 77 231 77.5247 230.998 78.0275 230.79 78.4 230.42 78.4405 231.353 78.1422 232.27 77.56 233L80.44 233C79.8578 232.27 79.5595 231.353 79.6 230.42 79.9725 230.79 80.4753 230.998 81 231 82.1046 231 83 230.105 83 229 83 227.895 82.1046 227 81 227Z" fill="#D9D9D9" fill-rule="nonzero" fill-opacity="1"/><path d="M109 274C108.903 273.995 108.807 273.995 108.71 274 109.283 273.056 108.982 271.826 108.037 271.253 107.093 270.68 105.863 270.981 105.29 271.926 104.903 272.563 104.903 273.362 105.29 274 105.193 273.995 105.097 273.995 105 274 103.895 274 103 274.895 103 276 103 277.105 103.895 278 105 278 105.525 277.998 106.027 277.789 106.4 277.42 106.44 278.353 106.142 279.27 105.56 280L108.44 280C107.858 279.27 107.56 278.353 107.6 277.42 107.973 277.789 108.475 277.998 109 278 110.105 278 111 277.105 111 276 111 274.895 110.105 274 109 274Z" fill="#D9D9D9" fill-rule="nonzero" fill-opacity="1"/></g></g></g></g></g></svg>