<svg width="98" height="97" xmlns="http://www.w3.org/2000/svg" xmlns:xlink="http://www.w3.org/1999/xlink" xml:space="preserve" overflow="hidden"><g transform="translate(-318 -588)"><g><g><g><g><path d="M410.7 661.8 390.7 629.8C390.3 629.2 389.7 628.9 389 628.9 388.3 628.9 387.7 629.3 387.3 629.8L381.4 639.2 394 659.6C395.1 661.2 395.3 663.2 394.6 665L408.8 665C409.6 665 410.3 664.6 410.7 663.9 411.1 663.2 411.1 662.4 410.7 661.8Z" fill="#F4A844" fill-rule="nonzero" fill-opacity="1"/><path d="M362.1 632.1 357 636.7 351.9 632.2 342.3 638 357 614 371.7 638 362.1 632.1ZM390.6 661.8 358.7 609.9C358.3 609.4 357.7 609 357 609 356.3 609 355.7 609.3 355.3 609.9L323.4 661.8C322.9 662.4 322.9 663.3 323.2 664 323.6 664.6 324.3 665 325.1 665L388.9 665C389.7 665 390.4 664.6 390.8 663.9 391.1 663.2 391.1 662.4 390.6 661.8Z" fill="#F4A844" fill-rule="nonzero" fill-opacity="1"/></g></g></g></g></g></svg>