<svg width="98" height="96" xmlns="http://www.w3.org/2000/svg" xmlns:xlink="http://www.w3.org/1999/xlink" xml:space="preserve" overflow="hidden"><g transform="translate(-186 -580)"><g><g><g><g><path d="M263 656 213 656 213 600 263 600 263 656ZM207 594 207 600 205.7 600C204.1 600.1 203 601.4 203 603 202.9 604.6 204.1 605.9 205.7 606L207 606 207 610 205.7 610C204 610 202.7 611.3 202.7 613 202.7 614.7 204 616 205.7 616L207 616 207 620 205.7 620C204 620 202.7 621.3 202.7 623 202.7 624.7 204 626 205.7 626L207 626 207 630 205.7 630C204 630 202.7 631.3 202.7 633 202.7 634.7 204 636 205.7 636L207 636 207 640 205.7 640C204 640 202.7 641.3 202.7 643 202.7 644.7 204 646 205.7 646L207 646 207 650 205.7 650C204 650 202.7 651.3 202.7 653 202.7 654.7 204 656 205.7 656L207 656 207 662 269 662 269 594 207 594Z" fill="#309B58" fill-rule="nonzero" fill-opacity="1"/><path d="M227 638C229.2 638 231 639.8 231 642 231 644.2 229.2 646 227 646 224.8 646 223 644.2 223 642 223 639.8 224.8 638 227 638ZM227 650C231 650 234.4 647 234.9 643 235.4 639 232.9 635.3 229 634.3L229 632C229 630.9 229.9 630 231 630L245 630C248.3 630 251 627.3 251 624L251 612.8 253.6 615.4C254.4 616.2 255.6 616.2 256.4 615.4 257.2 614.6 257.2 613.4 256.4 612.6L250.4 606.6C250 606.2 249.5 606 249 606 248.5 606 248 606.2 247.6 606.6L241.6 612.6C240.8 613.4 240.8 614.6 241.6 615.4 242.4 616.2 243.6 616.2 244.4 615.4L247 612.8 247 624C247 625.1 246.1 626 245 626L231 626C227.7 626 225 628.7 225 632L225 634.3C221.1 635.3 218.6 639.1 219.1 643 219.6 647 223 650 227 650Z" fill="#309B58" fill-rule="nonzero" fill-opacity="1"/><path d="M256.4 634.6C256 634.2 255.5 634 255 634 254.5 634 254 634.2 253.6 634.6L249 639.2 244.4 634.6C243.6 633.8 242.4 633.8 241.6 634.6 240.8 635.4 240.8 636.6 241.6 637.4L246.2 642 241.6 646.6C240.8 647.4 240.8 648.6 241.6 649.4 242.4 650.2 243.6 650.2 244.4 649.4L249 644.8 253.6 649.4C254.4 650.2 255.6 650.2 256.4 649.4 257.2 648.6 257.2 647.4 256.4 646.6L251.8 642 256.4 637.4C257.2 636.6 257.2 635.4 256.4 634.6Z" fill="#309B58" fill-rule="nonzero" fill-opacity="1"/><path d="M219.6 621.4C220 621.8 220.5 622 221 622 221.5 622 222 621.8 222.4 621.4L227 616.8 231.6 621.4C232.4 622.2 233.6 622.2 234.4 621.4 235.2 620.6 235.2 619.4 234.4 618.6L229.8 614 234.4 609.4C235.2 608.6 235.2 607.4 234.4 606.6 233.6 605.8 232.4 605.8 231.6 606.6L227 611.2 222.4 606.6C221.6 605.8 220.4 605.8 219.6 606.6 218.8 607.4 218.8 608.6 219.6 609.4L224.2 614 219.6 618.6C218.8 619.4 218.8 620.6 219.6 621.4Z" fill="#309B58" fill-rule="nonzero" fill-opacity="1"/></g></g></g></g></g></svg>