<svg width="97" height="96" xmlns="http://www.w3.org/2000/svg" xmlns:xlink="http://www.w3.org/1999/xlink" xml:space="preserve" overflow="hidden"><g transform="translate(-44 -580)"><g><g><g><g><path d="M78 610.8C78 615.771 73.9706 619.8 69 619.8 64.0294 619.8 60 615.771 60 610.8 60 605.829 64.0294 601.8 69 601.8 73.9706 601.8 78 605.829 78 610.8Z" fill="#3B97C2" fill-rule="nonzero" fill-opacity="1"/><path d="M126 610.8C126 615.771 121.971 619.8 117 619.8 112.029 619.8 108 615.771 108 610.8 108 605.829 112.029 601.8 117 601.8 121.971 601.8 126 605.829 126 610.8Z" fill="#3B97C2" fill-rule="nonzero" fill-opacity="1"/><path d="M111 654.2 111 645.2C111 643.8 110.4 642.4 109.2 641.6 106.8 639.6 103.6 638.2 100.4 637.4 98.2 636.8 95.6 636.2 93 636.2 90.6 636.2 88 636.6 85.6 637.4 82.4 638.2 79.4 639.8 76.8 641.6 75.6 642.6 75 643.8 75 645.2L75 654.2 111 654.2Z" fill="#3B97C2" fill-rule="nonzero" fill-opacity="1"/><path d="M102 624.8C102 629.771 97.9706 633.8 93 633.8 88.0294 633.8 84 629.771 84 624.8 84 619.829 88.0294 615.8 93 615.8 97.9706 615.8 102 619.829 102 624.8Z" fill="#3B97C2" fill-rule="nonzero" fill-opacity="1"/><path d="M133.2 627.6C130.8 625.6 127.6 624.2 124.4 623.4 122.2 622.8 119.6 622.2 117 622.2 114.6 622.2 112 622.6 109.6 623.4 108.4 623.8 107.2 624.2 106 624.8L106 625C106 628.4 104.6 631.6 102.4 633.8 106.2 635 109.2 636.6 111.6 638.4 112.2 639 112.8 639.4 113.2 640.2L135 640.2 135 631.2C135 629.8 134.4 628.4 133.2 627.6Z" fill="#3B97C2" fill-rule="nonzero" fill-opacity="1"/><path d="M74.4 638.4 74.4 638.4C77.2 636.4 80.4 634.8 83.6 633.8 81.4 631.4 80 628.4 80 625 80 624.8 80 624.8 80 624.6 78.8 624.2 77.6 623.6 76.4 623.4 74.2 622.8 71.6 622.2 69 622.2 66.6 622.2 64 622.6 61.6 623.4 58.4 624.4 55.4 625.8 52.8 627.6 51.6 628.4 51 629.8 51 631.2L51 640.2 72.6 640.2C73.2 639.4 73.6 639 74.4 638.4Z" fill="#3B97C2" fill-rule="nonzero" fill-opacity="1"/></g></g></g></g></g></svg>