<svg width="97" height="97" xmlns="http://www.w3.org/2000/svg" xmlns:xlink="http://www.w3.org/1999/xlink" xml:space="preserve" overflow="hidden"><g transform="translate(-460 -589)"><g><g><g><g><path d="M537 611.5 537 647.5 481 647.5 481 611.5 537 611.5ZM545 649.5 543 649.5 543 609.5C543 609.2 542.9 608.8 542.9 608.5L545 608.5C546.1 608.5 547 607.6 547 606.5 547 605.4 546.1 604.5 545 604.5L511 604.5 511 602.5C511 601.4 510.1 600.5 509 600.5 507.9 600.5 507 601.4 507 602.5L507 604.5 473 604.5C471.9 604.5 471 605.4 471 606.5 471 607.6 471.9 608.5 473 608.5L475.1 608.5C475 608.8 475 609.2 475 609.5L475 649.5 473 649.5C471.9 649.5 471 650.4 471 651.5 471 652.6 471.9 653.5 473 653.5L503.5 653.5 488.1 668.9C487.3 669.7 487.3 671 488.1 671.7 488.9 672.5 490.2 672.5 490.9 671.7L506.9 655.7 506.9 673.5C506.9 674.6 507.8 675.5 508.9 675.5 510 675.5 510.9 674.6 510.9 673.5L510.9 655.7 526.9 671.7C527.7 672.5 528.9 672.5 529.7 671.7 530.5 670.9 530.5 669.7 529.7 668.9L514.5 653.5 545 653.5C546.1 653.5 547 652.6 547 651.5 547 650.4 546.1 649.5 545 649.5Z" fill="#C73569" fill-rule="nonzero" fill-opacity="1"/></g></g></g></g></g></svg>