<svg width="97" height="96" xmlns="http://www.w3.org/2000/svg" xmlns:xlink="http://www.w3.org/1999/xlink" xml:space="preserve" overflow="hidden"><g transform="translate(-44 -436)"><g><g><g><g><path d="M91 450 95 450 95 462 91 462Z" fill="#D83B01" fill-rule="nonzero" fill-opacity="1"/><path d="M122.909 456.97 114.919 464.96 112.09 462.132 120.081 454.141Z" fill="#D83B01" fill-rule="nonzero" fill-opacity="1"/><path d="M73.8592 462.081 71.0308 464.91 63.0405 456.919 65.8689 454.091Z" fill="#D83B01" fill-rule="nonzero" fill-opacity="1"/><path d="M117 478 127 478 127 482 117 482Z" fill="#D83B01" fill-rule="nonzero" fill-opacity="1"/><path d="M59 478 69 478 69 482 59 482Z" fill="#D83B01" fill-rule="nonzero" fill-opacity="1"/><path d="M77 506 80.4 472 105.5 472 109 506 77 506ZM121 506 115 506 111.4 469.6C111.2 467.6 109.5 466 107.4 466L78.6 466C76.5 466 74.8 467.6 74.6 469.6L71 506 65 506 65 512 59 512 59 518 127 518 127 512 121 512 121 506Z" fill="#D83B01" fill-rule="nonzero" fill-opacity="1"/><path d="M97.8 476 100.3 502 104.4 502 101.8 476Z" fill="#D83B01" fill-rule="nonzero" fill-opacity="1"/></g></g></g></g></g></svg>